<?xml version="1.0" encoding="utf-8"?>
<!-- Generator: Adobe Illustrator 15.1.0, SVG Export Plug-In . SVG Version: 6.00 Build 0)  -->
<!DOCTYPE svg PUBLIC "-//W3C//DTD SVG 1.1//EN" "http://www.w3.org/Graphics/SVG/1.1/DTD/svg11.dtd">
<svg version="1.1" id="Layer_1" xmlns="http://www.w3.org/2000/svg" xmlns:xlink="http://www.w3.org/1999/xlink" x="0px" y="0px"
	 width="200px" height="200px" viewBox="0 0 200 200" enable-background="new 0 0 200 200" xml:space="preserve">
<g>
	<path fill="#0acc95" d="M147.497,12.704c-19.134,0-39.391,3.738-47.752,11.772c-8.359-8.034-28.615-11.772-47.752-11.772
		c-24.908,0-51.715,6.332-51.715,20.229v151.546v0.028c0,2.442,1.773,4.435,3.963,4.435c0.156,0,0.31-0.009,0.461-0.037h94.581
		l0.062,0.016c0.132,0.016,0.267,0.021,0.401,0.021c0.136,0,0.269-0.006,0.401-0.021l0.064-0.016h94.579
		c0.153,0.022,0.305,0.037,0.462,0.037c2.19,0,3.96-1.992,3.96-4.435v-0.013v-0.016V32.933
		C199.212,19.036,172.404,12.704,147.497,12.704z M13.384,180.047c1.539-0.802,3.502-1.641,5.999-2.471
		c8.66-2.855,20.243-4.435,32.61-4.435c12.369,0,23.95,1.579,32.612,4.435c2.497,0.83,4.458,1.669,5.997,2.471H13.384z
		 M95.784,173.062c-9.802-5.978-27.227-8.78-43.791-8.78s-33.987,2.803-43.789,8.78V32.933c0-0.645,1.983-3.889,11.148-6.921
		c8.663-2.868,20.257-4.444,32.641-4.444c12.386,0,23.978,1.576,32.643,4.444c9.163,3.032,11.148,6.276,11.148,6.921V173.062z
		 M108.89,180.047c1.539-0.802,3.504-1.641,5.999-2.471c8.66-2.855,20.241-4.435,32.608-4.435c12.371,0,23.951,1.579,32.612,4.435
		c2.498,0.83,4.459,1.669,5.998,2.471H108.89z M191.289,173.062c-9.805-5.978-27.224-8.78-43.792-8.78
		c-16.562,0-33.987,2.803-43.789,8.78V32.933c0-0.645,1.986-3.889,11.149-6.921c8.663-2.868,20.257-4.444,32.64-4.444
		c12.386,0,23.979,1.576,32.643,4.444c9.166,3.032,11.149,6.276,11.149,6.921V173.062z"/>
	<path fill="#0acc95" d="M40.211,46.845c3.825-0.33,7.789-0.497,11.782-0.497c11.279,0,22.113,1.339,30.508,3.781c0.333,0.099,0.669,0.148,1,0.148
		c1.761,0,3.368-1.329,3.833-3.321c0.549-2.369-0.722-4.787-2.84-5.4c-9.027-2.625-20.57-4.068-32.501-4.068
		c-4.196,0-8.366,0.173-12.392,0.521c-2.182,0.188-3.815,2.319-3.647,4.759C36.125,45.211,38.033,47.04,40.211,46.845z"/>
	<path fill="#0acc95" d="M20.485,50.278c0.33,0,0.666-0.049,0.999-0.148c1.775-0.518,3.686-0.987,5.68-1.409c2.151-0.447,3.567-2.764,3.165-5.169
		c-0.406-2.405-2.477-3.984-4.626-3.541c-2.173,0.457-4.262,0.975-6.21,1.545c-2.119,0.614-3.39,3.032-2.839,5.4
		C17.118,48.946,18.724,50.278,20.485,50.278z"/>
	<path fill="#0acc95" d="M84.496,64.478c-9.027-2.628-20.57-4.074-32.502-4.074c-11.931,0-23.475,1.446-32.501,4.074
		c-2.119,0.607-3.39,3.029-2.839,5.397c0.55,2.372,2.714,3.793,4.833,3.173c8.394-2.439,19.229-3.784,30.507-3.784
		c11.279,0,22.113,1.345,30.508,3.784c0.335,0.099,0.669,0.142,1,0.142c1.761,0,3.369-1.32,3.833-3.315
		C87.885,67.506,86.613,65.085,84.496,64.478z"/>
	<path fill="#0acc95" d="M84.496,87.383c-9.027-2.63-20.57-4.074-32.502-4.074c-11.931,0-23.475,1.443-32.501,4.074
		c-2.119,0.608-3.39,3.026-2.839,5.397c0.55,2.369,2.714,3.788,4.833,3.177c8.394-2.439,19.229-3.784,30.507-3.784
		c11.279,0,22.113,1.345,30.508,3.784c0.335,0.099,0.669,0.142,1,0.142c1.761,0,3.369-1.323,3.833-3.319
		C87.885,90.409,86.613,87.991,84.496,87.383z"/>
	<path fill="#0acc95" d="M21.484,118.873c8.397-2.437,19.231-3.781,30.509-3.781c11.279,0,22.113,1.345,30.508,3.781
		c0.333,0.102,0.668,0.142,1,0.142c1.761,0,3.368-1.323,3.832-3.315c0.552-2.369-0.72-4.783-2.837-5.406
		c-9.027-2.612-20.57-4.065-32.502-4.065c-11.931,0-23.474,1.453-32.501,4.065c-2.119,0.623-3.39,3.037-2.839,5.406
		C17.204,118.071,19.367,119.489,21.484,118.873z"/>
	<path fill="#0acc95" d="M84.496,133.217c-9.027-2.627-20.57-4.067-32.502-4.067c-11.931,0-23.475,1.44-32.501,4.067
		c-2.119,0.617-3.39,3.032-2.839,5.4c0.55,2.375,2.714,3.791,4.833,3.174c8.394-2.439,19.229-3.778,30.507-3.778
		c11.279,0,22.113,1.339,30.508,3.778c0.335,0.102,0.669,0.146,1,0.146c1.761,0,3.369-1.323,3.833-3.319
		C87.885,136.249,86.613,133.834,84.496,133.217z"/>
	<path fill="#0acc95" d="M116.992,50.13c8.395-2.442,19.229-3.781,30.505-3.781c11.282,0,22.113,1.339,30.509,3.781
		c0.336,0.099,0.672,0.148,0.999,0.148c1.764,0,3.368-1.329,3.834-3.321c0.552-2.369-0.719-4.787-2.838-5.4
		c-9.027-2.625-20.571-4.068-32.504-4.068c-11.93,0-23.474,1.444-32.501,4.068c-2.118,0.614-3.39,3.032-2.837,5.4
		C112.708,49.325,114.873,50.747,116.992,50.13z"/>
	<path fill="#0acc95" d="M180.001,64.48c-9.027-2.631-20.568-4.077-32.504-4.077c-11.93,0-23.474,1.446-32.501,4.077
		c-2.115,0.608-3.386,3.026-2.837,5.395c0.549,2.372,2.714,3.793,4.833,3.173c8.395-2.439,19.229-3.784,30.505-3.784
		c11.282,0,22.113,1.345,30.509,3.784c0.336,0.099,0.672,0.142,0.999,0.142c1.764,0,3.371-1.317,3.834-3.315
		C183.391,67.506,182.12,65.085,180.001,64.48z"/>
	<path fill="#0acc95" d="M180.001,87.383c-9.027-2.63-20.568-4.074-32.504-4.074c-11.93,0-23.474,1.443-32.501,4.074
		c-2.115,0.608-3.386,3.026-2.837,5.397c0.549,2.369,2.714,3.788,4.833,3.177c8.395-2.439,19.229-3.784,30.505-3.784
		c11.282,0,22.113,1.345,30.509,3.784c0.336,0.099,0.672,0.142,0.999,0.142c1.764,0,3.371-1.323,3.834-3.319
		C183.391,90.409,182.12,87.991,180.001,87.383z"/>
	<path fill="#0acc95" d="M116.988,118.873c8.398-2.437,19.233-3.781,30.509-3.781c11.279,0,22.113,1.345,30.509,3.781
		c0.333,0.102,0.672,0.142,0.999,0.142c1.761,0,3.368-1.323,3.834-3.315c0.552-2.369-0.719-4.783-2.838-5.406
		c-9.027-2.612-20.568-4.065-32.504-4.065c-11.93,0-23.474,1.453-32.501,4.065c-2.115,0.623-3.386,3.037-2.837,5.406
		C112.708,118.071,114.873,119.489,116.988,118.873z"/>
	<path fill="#0acc95" d="M180.001,133.217c-9.027-2.627-20.568-4.067-32.504-4.067c-11.93,0-23.474,1.44-32.501,4.067
		c-2.115,0.617-3.386,3.032-2.837,5.4c0.549,2.375,2.714,3.791,4.833,3.174c8.395-2.439,19.229-3.778,30.505-3.778
		c11.282,0,22.113,1.339,30.509,3.778c0.336,0.102,0.672,0.146,0.999,0.146c1.764,0,3.371-1.323,3.834-3.319
		C183.391,136.249,182.12,133.834,180.001,133.217z"/>
</g>
</svg>
