<?xml version="1.0" encoding="utf-8"?>
<!-- Generator: Adobe Illustrator 15.1.0, SVG Export Plug-In . SVG Version: 6.00 Build 0)  -->
<!DOCTYPE svg PUBLIC "-//W3C//DTD SVG 1.1//EN" "http://www.w3.org/Graphics/SVG/1.1/DTD/svg11.dtd">
<svg version="1.1" id="Layer_1" xmlns="http://www.w3.org/2000/svg" xmlns:xlink="http://www.w3.org/1999/xlink" x="0px" y="0px"
	 width="200px" height="200px" viewBox="0 0 200 200" enable-background="new 0 0 200 200" xml:space="preserve">
<g>
	<path fill="#fff" d="M166.109,83.345h-7.786V52.699c0-28.221-22.963-51.188-51.184-51.188H94.862c-28.222,0-51.184,22.967-51.184,51.188v30.646
		h-7.786c-6.988,0-12.673,5.683-12.673,12.679v89.297c0,6.98,5.686,12.672,12.673,12.672h130.217
		c6.988,0,12.672-5.691,12.672-12.672V96.023C178.781,89.028,173.098,83.345,166.109,83.345z M94.862,9.781h12.278
		c23.662,0,42.918,19.252,42.918,42.918v30.646h-16.282V52.699c0-14.69-11.949-26.636-26.636-26.636H94.862
		c-14.686,0-26.635,11.946-26.635,26.636v30.646H51.944V52.699C51.944,29.033,71.196,9.781,94.862,9.781z M125.506,83.345H76.492
		V52.699c0-10.123,8.241-18.374,18.37-18.374h12.278c10.127,0,18.366,8.243,18.366,18.374V83.345z M170.516,185.32
		c0,2.43-1.977,4.402-4.406,4.402H35.892c-2.431,0-4.407-1.973-4.407-4.402V96.023c0-2.44,1.976-4.409,4.407-4.409h130.217
		c2.43,0,4.406,1.969,4.406,4.409V185.32z"/>
	<path fill="#fff" d="M121.5,128.361c0-11.324-9.195-20.53-20.5-20.53c-11.303,0-20.5,9.206-20.5,20.53c0,6.336,2.945,12.288,7.84,16.159
		l-3.701,24.227c-0.182,1.197,0.165,2.398,0.95,3.319c0.787,0.917,1.93,1.438,3.137,1.438h24.546h0.011
		c2.284,0,4.134-1.85,4.134-4.137c0-0.295-0.035-0.599-0.101-0.886l-3.656-23.962C118.553,140.649,121.5,134.693,121.5,128.361z
		 M107.109,138.999c-1.47,0.852-2.269,2.518-2.011,4.198l3.361,22.046H93.536l3.367-22.046c0.257-1.681-0.543-3.347-2.013-4.198
		c-3.778-2.188-6.125-6.267-6.125-10.638c0-6.762,5.488-12.268,12.234-12.268s12.233,5.506,12.233,12.268
		C113.233,132.732,110.885,136.812,107.109,138.999z"/>
	<path fill="#fff" d="M158.281,153.992c-2.283,0-4.133,1.856-4.133,4.133v19.367c0,2.283,1.85,4.129,4.133,4.129s4.133-1.846,4.133-4.129
		v-19.367C162.414,155.846,160.564,153.992,158.281,153.992z"/>
	<path fill="#fff" d="M158.281,141.847c-2.283,0-4.133,1.846-4.133,4.133v0.303c0,2.279,1.85,4.125,4.133,4.125s4.133-1.846,4.133-4.125v-0.303
		C162.414,143.692,160.564,141.847,158.281,141.847z"/>
	<path fill="#fff" d="M43.719,130.925c-2.282,0-4.133,1.846-4.133,4.133v0.296c0,2.287,1.852,4.141,4.133,4.141c2.281,0,4.133-1.854,4.133-4.141
		v-0.296C47.852,132.771,46.002,130.925,43.719,130.925z"/>
	<path fill="#fff" d="M43.719,99.704c-2.282,0-4.133,1.861-4.133,4.144v19.364c0,2.279,1.852,4.133,4.133,4.133c2.281,0,4.133-1.854,4.133-4.133
		v-19.364C47.852,101.561,46.002,99.704,43.719,99.704z"/>
</g>
</svg>
