<?xml version="1.0" encoding="utf-8"?>
<!-- Generator: Adobe Illustrator 15.1.0, SVG Export Plug-In . SVG Version: 6.00 Build 0)  -->
<!DOCTYPE svg PUBLIC "-//W3C//DTD SVG 1.1//EN" "http://www.w3.org/Graphics/SVG/1.1/DTD/svg11.dtd">
<svg version="1.1" id="Layer_1" xmlns="http://www.w3.org/2000/svg" xmlns:xlink="http://www.w3.org/1999/xlink" x="0px" y="0px"
	 width="200px" height="200px" viewBox="0 0 200 200" enable-background="new 0 0 200 200" xml:space="preserve">
<g>
	<path fill="#fff" d="M125.178,2.003c-40.429,0-73.325,32.891-73.325,73.317c0,15.808,5.025,30.452,13.56,42.442l-6.45,6.453
		c-0.768-0.764-1.798-1.188-2.875-1.188c-1.092,0-2.138,0.439-2.91,1.22L7.769,169.646C4.692,172.72,3,176.82,3,181.193
		c0,4.368,1.692,8.469,4.769,11.542c3.074,3.078,7.171,4.766,11.543,4.766c4.368,0,8.469-1.688,11.542-4.766l45.412-45.408
		c0.772-0.774,1.207-1.82,1.207-2.91c0-1.076-0.424-2.107-1.18-2.878l6.45-6.453c11.986,8.538,26.633,13.569,42.438,13.569
		c40.429,0,73.321-32.898,73.321-73.335C198.503,34.894,165.61,2.003,125.178,2.003z M25.04,186.92
		c-1.52,1.521-3.555,2.353-5.728,2.353s-4.208-0.832-5.731-2.353c-3.158-3.161-3.158-8.3,0.003-11.455l42.499-42.498l11.459,11.45
		L25.04,186.92z M70.479,135.716l-5.697-5.689l5.804-5.8c1.795,1.992,3.696,3.895,5.697,5.689L70.479,135.716z M125.178,140.427
		c-35.897,0-65.1-29.206-65.1-65.107c0-35.885,29.203-65.088,65.1-65.088c35.896,0,65.1,29.203,65.1,65.088
		C190.277,111.221,161.074,140.427,125.178,140.427z"/>
	<path fill="#fff" d="M84.844,34.994c-7.599,7.599-12.884,17.16-15.273,27.638c-0.508,2.218,0.878,4.417,3.093,4.926
		c0.31,0.076,0.614,0.103,0.92,0.103c1.875,0,3.57-1.294,4.006-3.196c2.047-8.97,6.567-17.145,13.07-23.651
		c1.607-1.612,1.607-4.216,0-5.819C89.056,33.386,86.451,33.386,84.844,34.994z"/>
	<path fill="#fff" d="M177.692,83.09c-2.215-0.503-4.418,0.882-4.926,3.098c-5.099,22.346-24.667,37.954-47.589,37.954
		c-2.271,0-4.113,1.841-4.113,4.112c0,2.269,1.842,4.108,4.113,4.108c12.872,0,25.498-4.421,35.561-12.447
		c10.065-8.019,17.183-19.355,20.047-31.902C181.293,85.798,179.907,83.602,177.692,83.09z"/>
	<path fill="#fff" d="M72.277,70.825H72.25c-2.256,0-4.097,1.826-4.112,4.086v0.409c0,2.279,1.84,4.12,4.112,4.12s4.112-1.84,4.112-4.12v-0.359
		C76.378,72.689,74.549,70.837,72.277,70.825z"/>
	<path fill="#fff" d="M178.104,71.211c-2.271,0-4.113,1.844-4.113,4.109v0.359c-0.018,2.28,1.811,4.131,4.083,4.15h0.03
		c2.256,0,4.093-1.821,4.113-4.085V75.32C182.218,73.055,180.376,71.211,178.104,71.211z"/>
</g>
</svg>
