<?xml version="1.0" encoding="utf-8"?>
<!-- Generator: Adobe Illustrator 15.1.0, SVG Export Plug-In . SVG Version: 6.00 Build 0)  -->
<!DOCTYPE svg PUBLIC "-//W3C//DTD SVG 1.1//EN" "http://www.w3.org/Graphics/SVG/1.1/DTD/svg11.dtd">
<svg version="1.1" id="Layer_1" xmlns="http://www.w3.org/2000/svg" xmlns:xlink="http://www.w3.org/1999/xlink" x="0px" y="0px"
	 width="200px" height="200px" viewBox="0 0 200 200" enable-background="new 0 0 200 200" xml:space="preserve">
<g>
	<path fill="#fff" d="M181.905,34.822c-27.416-7.511-54.991-19.209-79.746-33.818c-1.315-0.786-2.945-0.786-4.261,0
		c-25.47,15.029-51.556,26.097-79.75,33.818c-1.817,0.498-3.082,2.156-3.082,4.043v42.818c0,44.103,20.345,73.295,37.413,90.023
		c18.376,18.007,39.779,27.961,47.547,27.961c7.771,0,29.174-9.954,47.547-27.961c17.068-16.729,37.413-45.921,37.413-90.023V38.865
		C184.987,36.978,183.727,35.32,181.905,34.822z M176.604,81.684c0,41.196-18.976,68.438-34.896,84.026
		c-18.068,17.712-37.389,25.568-41.682,25.568c-4.292,0-23.614-7.856-41.683-25.568c-15.916-15.589-34.895-42.83-34.895-84.026
		V42.044C50.41,34.394,75.518,23.711,100.03,9.468c23.898,13.866,50.26,25.082,76.574,32.572V81.684z"/>
	<path fill="#fff" d="M62.878,41.578c-0.849-2.152-3.285-3.214-5.437-2.362c-7.487,2.949-15.173,5.67-22.839,8.067
		c-1.751,0.552-2.938,2.167-2.938,3.997v16.196c0,2.308,1.876,4.188,4.191,4.188c2.311,0,4.191-1.879,4.191-4.188V54.342
		c6.876-2.222,13.752-4.677,20.47-7.332C62.668,46.166,63.727,43.733,62.878,41.578z"/>
	<path fill="#fff" d="M70.84,42.372c0.561,0,1.132-0.117,1.682-0.355l0.078-0.034c2.117-0.926,3.074-3.394,2.144-5.515
		c-0.93-2.117-3.413-3.086-5.53-2.148l-0.07,0.032c-2.121,0.926-3.078,3.389-2.152,5.51C67.681,41.438,69.222,42.372,70.84,42.372z"
		/>
	<path fill="#fff" d="M149.963,135.562c-1.934-1.269-4.533-0.721-5.797,1.214c-3.457,5.281-7.512,10.348-12.05,15.046
		c-3.731,3.859-7.774,7.455-12.021,10.693c-1.841,1.408-2.195,4.035-0.79,5.88c0.822,1.078,2.071,1.65,3.335,1.65
		c0.884,0,1.778-0.285,2.538-0.859c4.576-3.496,8.938-7.375,12.966-11.54c4.907-5.07,9.293-10.55,13.033-16.285
		C152.446,139.423,151.9,136.827,149.963,135.562z"/>
	<path fill="#fff" d="M110.363,169.093l-0.241,0.14c-2.005,1.159-2.685,3.724-1.526,5.732c0.776,1.339,2.18,2.085,3.632,2.085
		c0.712,0,1.432-0.179,2.093-0.564l0.276-0.158c2-1.18,2.671-3.736,1.502-5.729C114.923,168.59,112.358,167.928,110.363,169.093z"/>
	<path fill="#fff" d="M71.459,91.483c-2.572-2.568-5.997-3.989-9.635-3.989c-3.642,0-7.063,1.42-9.64,3.989c-5.312,5.32-5.312,13.959,0,19.279
		l24.75,24.746c2.572,2.572,5.997,3.993,9.635,3.993c3.643,0,7.064-1.421,9.636-3.997l51.664-51.66
		c5.316-5.32,5.316-13.963,0-19.271c-2.572-2.58-5.993-3.993-9.635-3.993c-3.643,0-7.062,1.413-9.635,3.993l-42.03,42.021
		L71.459,91.483z M134.521,70.492c0.992-0.984,2.311-1.525,3.713-1.525c1.401,0,2.721,0.541,3.713,1.525
		c2.043,2.055,2.043,5.375,0,7.425l-51.665,51.661c-0.992,0.995-2.312,1.537-3.712,1.537c-1.4,0-2.72-0.542-3.712-1.537
		l-24.746-24.739c-2.043-2.051-2.043-5.374,0-7.425c0.992-0.992,2.308-1.533,3.712-1.533c1.401,0,2.72,0.541,3.709,1.533
		l18.072,18.072c0.79,0.786,1.853,1.23,2.965,1.23c1.113,0,2.18-0.444,2.966-1.23L134.521,70.492z"/>
</g>
</svg>
